<?xml version="1.0" encoding="UTF-8"?>
<svg xmlns="http://www.w3.org/2000/svg" xmlns:xlink="http://www.w3.org/1999/xlink" viewBox="0 0 1133.86 566.93">
  <defs>
    <style>
      .cls-1 {
        fill: url(#Degradado_sin_nombre_6);
        mix-blend-mode: multiply;
        opacity: .5;
      }

      .cls-2 {
        fill: #233046;
      }

      .cls-3 {
        isolation: isolate;
      }

      .cls-4 {
        fill: #f28e2a;
      }

      .cls-5 {
        fill: #5b7388;
      }

      .cls-6 {
        fill: #d68029;
      }
    </style>
    <radialGradient id="Degradado_sin_nombre_6" data-name="Degradado sin nombre 6" cx="-67.3" cy="6283.69" fx="-67.3" fy="6283.69" r="89.62" gradientTransform="translate(986.32 -1193.65) scale(1.7 .25)" gradientUnits="userSpaceOnUse">
      <stop offset="0" stop-color="#233046"/>
      <stop offset=".03" stop-color="#2d3a4f"/>
      <stop offset=".17" stop-color="#646d7d"/>
      <stop offset=".32" stop-color="#939aa4"/>
      <stop offset=".46" stop-color="#babec5"/>
      <stop offset=".6" stop-color="#d8dade"/>
      <stop offset=".74" stop-color="#edeef0"/>
      <stop offset=".87" stop-color="#fafafb"/>
      <stop offset="1" stop-color="#fff"/>
    </radialGradient>
  </defs>
  <g class="cls-3">
    <g id="Capa_1" data-name="Capa 1">
      <g>
        <ellipse class="cls-1" cx="872.03" cy="377.27" rx="152.21" ry="22.41"/>
        <g>
          <rect class="cls-2" x="276.96" y="168.09" width="44.12" height="195.47"/>
          <path class="cls-2" d="M676.59,169.93c-33.81-2.42-66.24,15.01-84.93,45.15l-42.18,105.58-47.35-96.52c-1.92-5.62-4.44-11-7.58-16.13-8.08-13.18-18.78-23.5-32.08-30.96-13.31-7.46-27.42-11.19-42.34-11.19-16.91,0-32.58,4.85-47,14.55v-13.8h-38.79l.23,196.96h38.79l-.61-83.93c0-13.92.31-24.37.93-31.33.62-6.96,1.92-12.55,3.92-16.79,1.99-4.22,5.09-8.58,9.32-13.05,4.48-4.72,9.57-8.27,15.3-10.63,5.72-2.36,11.69-3.54,17.91-3.54s11.94,1.25,17.91,3.73c5.97,2.49,11.31,5.97,16.04,10.44,4.23,4.48,7.33,8.77,9.32,12.87,1.99,4.1,3.29,9.76,3.92,16.97.62,7.21.93,18.28.93,33.2l-.14,82.07h38.8l-.23-36.64,17.36,36.51h49.09l58.15-123.55c26.86-43.15,95.72-28.89,95.98,28.02-5.36,65.06-90.21,65.46-103.51,7.23l-24.19,53.29c16.49,22.69,40.78,35.68,80.87,35.37,49.21-2.14,95.09-40.84,92.07-100.5-2.03-60.41-50.49-93.36-95.91-93.36Z"/>
          <path class="cls-2" d="M623.54,173.71c4.25-47.58-22.68-61.34-46.73-65.42v115.82c11.67-23.24,26.28-41.64,46.73-50.41Z"/>
          <rect class="cls-6" x="276.77" y="107.77" width="44.09" height="43.99"/>
          <path class="cls-4" d="M872.56,365.98c-54.96,0-99.68-44.72-99.68-99.68s44.72-99.68,99.68-99.68,99.68,44.72,99.68,99.68-44.72,99.68-99.68,99.68ZM872.56,207.87c-32.22,0-58.43,26.21-58.43,58.43s26.21,58.43,58.43,58.43,58.43-26.21,58.43-58.43-26.21-58.43-58.43-58.43Z"/>
          <g>
            <path class="cls-2" d="M93.07,169.74v-2.63h-56.52v198.35s56.52-56.95,56.52-56.95v-138.77Z"/>
            <path class="cls-2" d="M152.82,167.18c.57.05,1.14.11,1.7.15,36.21,2.69,64.84,33.45,64.84,70.61s-31.41,70.57-70.05,70.57h-24.41l-56.52,56.95h80.93c69.04,0,125.35-55.98,126.55-125.26.01-.75.2-1.53.02-2.26-.31-.67-.67-1.26-.99-1.91-26.87-48.34-61.17-68.11-122.07-68.85Z"/>
          </g>
          <path class="cls-2" d="M70.5,154.4l-23.72,12.71h-10.23s.12-4.81.12-4.81c3.23-1.99,21.84-6.77,33.84-7.9Z"/>
          <path class="cls-5" d="M78.27,110.06s-8.33,13.75-6.65,42.59c.05.88-.52,1.66-1.33,1.78-5.51.8-25.48,3.91-33.63,7.86,0,0,8.72-21.15,41.61-52.23Z"/>
          <g>
            <polygon class="cls-4" points="78.25 110.09 78.25 110.09 78.25 110.1 78.25 110.09"/>
            <path class="cls-4" d="M149.31,110.09h-71.05c-.07.11-8.32,13.85-6.64,42.57.05.87-.51,1.64-1.31,1.77.06,0,.13-.02.19-.03l-23.72,12.71h102.53c63.9,0,99.04,20.05,126.57,70.64,0-70.39-56.77-127.66-126.57-127.66Z"/>
          </g>
          <path class="cls-2" d="M1097.31,166.39h-46.55l-44.13,73.22-43.16-73.22h-45.58l10.21,16.67c23.46,15.81,39.8,41.34,43.35,70.76l12.39,20.22-16.79,23.28c-6.46,19.3-18.67,35.94-34.6,47.96l-12.97,17.98h45.3l42.13-55.28,42.88,55.28h45.58l-64.98-89.22,66.92-107.65Z"/>
        </g>
      </g>
    </g>
  </g>
</svg>